<svg width="714" height="210" viewBox="0 0 714 210" fill="none" xmlns="http://www.w3.org/2000/svg">
<path fill-rule="evenodd" clip-rule="evenodd" d="M47.2478 136.516C42.8569 139.51 33.3567 150.168 30.4827 168.849C27.6086 187.53 34.8735 197.39 38.8652 199.985C42.6574 202.779 52.9959 208.607 64.013 209.565H75.9881C79.7802 209.565 88.8015 208.846 94.5496 205.972C100.338 203.976 112.392 199.745 114.309 198.787C115.084 198.399 117.805 197.133 121.191 195.557C128.265 192.265 138.242 187.622 139.456 186.812C139.734 186.627 140.369 186.213 141.246 185.641C146.047 182.513 158.11 174.652 158.616 173.639L181.369 154.479C193.544 142.304 218.971 112.327 218.492 92.2085C220.688 84.6242 220.049 67.6595 204.721 58.0794C200.33 56.0835 181.369 49.6968 169.394 55.0856C171.789 55.9116 175.443 56.8332 179.004 57.7318C184.049 59.0045 188.909 60.2308 189.752 61.0732L158.616 61.0731V122.146L184.962 122.146C177.354 132.17 163.807 146.641 146.641 159.468V134.121H85.5682V177.219C85.5682 180.533 88.2545 183.219 91.5682 183.219H102.173C92.1751 186.405 81.7704 188.211 71.1981 188.009C55.2312 188.409 28.0876 178.669 47.2478 136.516Z" fill="#00AFAA"/>
<path fill-rule="evenodd" clip-rule="evenodd" d="M91.5682 0C88.2545 0 85.5682 2.68628 85.5682 5.99999V59.8756H30.4951C27.1814 59.8756 24.4951 62.5619 24.4951 65.8756L24.4951 116.146C24.4951 116.517 24.5288 116.881 24.5933 117.233C15.9734 128.692 5.26857 143.286 0.544836 165.855C-0.652679 174.238 -0.0539213 188.009 4.13738 196.392C6.83179 201.781 10.7237 206.571 17.31 207.17C16.9682 206.486 16.614 205.801 16.256 205.109C13.4779 199.736 10.4738 193.926 11.3224 185.016C11.3224 179.627 13.1187 165.855 17.31 156.874C21.4699 147.96 33.3009 130.296 40.0709 122.146L146.641 122.146V73.0358V65.8756V47.5795C158.656 44.4461 182.107 40.7154 186.159 40.7154C191.548 40.7154 205.319 40.7154 217.294 47.9005C221.087 50.6947 226.875 58.0793 231.066 67.0607C234.06 55.0856 229.749 41.3142 219.689 34.1291C207.954 25.7465 202.924 23.9502 184.363 23.9502C177.819 23.9502 160.019 26.3781 146.641 29.6258V6C146.641 2.68629 143.955 0 140.641 0H91.5682Z" fill="#C92A86"/>
<path d="M319.24 97.59C309.44 97.59 301.145 96.33 294.355 93.81C287.635 91.29 282.525 87.615 279.025 82.785C275.595 77.885 273.88 71.97 273.88 65.04C273.88 58.04 275.595 52.125 279.025 47.295C282.525 42.395 287.67 38.685 294.46 36.165C301.25 33.645 309.545 32.385 319.345 32.385C319.485 32.385 319.94 32.385 320.71 32.385C321.55 32.385 322.39 32.385 323.23 32.385C324.07 32.385 324.525 32.385 324.595 32.385C334.325 32.385 342.48 33.68 349.06 36.27C355.71 38.79 360.75 42.5 364.18 47.4C367.61 52.23 369.325 58.11 369.325 65.04C369.325 71.9 367.645 77.78 364.285 82.68C360.995 87.51 356.095 91.22 349.585 93.81C343.075 96.33 335.06 97.59 325.54 97.59C325.4 97.59 324.84 97.59 323.86 97.59C322.88 97.59 321.935 97.59 321.025 97.59C320.115 97.59 319.52 97.59 319.24 97.59ZM321.13 81.63C321.34 81.63 321.655 81.63 322.075 81.63C322.565 81.63 322.915 81.63 323.125 81.63C329.145 81.63 334.08 81.035 337.93 79.845C341.78 78.655 344.615 76.835 346.435 74.385C348.255 71.935 349.165 68.785 349.165 64.935C349.165 61.015 348.22 57.865 346.33 55.485C344.44 53.105 341.605 51.355 337.825 50.235C334.045 49.045 329.215 48.45 323.335 48.45C323.125 48.45 322.775 48.45 322.285 48.45C321.865 48.45 321.48 48.45 321.13 48.45C314.83 48.45 309.685 49.01 305.695 50.13C301.705 51.25 298.765 53.035 296.875 55.485C294.985 57.865 294.04 61.05 294.04 65.04C294.04 68.96 295.055 72.145 297.085 74.595C299.185 77.045 302.23 78.83 306.22 79.95C310.28 81.07 315.25 81.63 321.13 81.63ZM312.1 105.465V25.035H331.105V105.465H312.1ZM415.929 103.47C410.119 103.47 404.729 102.56 399.759 100.74C394.859 98.85 390.589 96.19 386.949 92.76C383.379 89.33 380.579 85.305 378.549 80.685C376.519 75.995 375.504 70.85 375.504 65.25C375.504 59.65 376.519 54.54 378.549 49.92C380.579 45.23 383.379 41.17 386.949 37.74C390.589 34.31 394.859 31.685 399.759 29.865C404.729 27.975 410.119 27.03 415.929 27.03C422.719 27.03 428.774 28.22 434.094 30.6C439.484 32.98 443.964 36.41 447.534 40.89L434.304 52.86C431.924 50.06 429.299 47.925 426.429 46.455C423.629 44.985 420.479 44.25 416.979 44.25C413.969 44.25 411.204 44.74 408.684 45.72C406.164 46.7 403.994 48.135 402.174 50.025C400.424 51.845 399.024 54.05 397.974 56.64C396.994 59.23 396.504 62.1 396.504 65.25C396.504 68.4 396.994 71.27 397.974 73.86C399.024 76.45 400.424 78.69 402.174 80.58C403.994 82.4 406.164 83.8 408.684 84.78C411.204 85.76 413.969 86.25 416.979 86.25C420.479 86.25 423.629 85.515 426.429 84.045C429.299 82.575 431.924 80.44 434.304 77.64L447.534 89.61C443.964 94.02 439.484 97.45 434.094 99.9C428.774 102.28 422.719 103.47 415.929 103.47ZM506.065 28.5H526.855V102H506.065V28.5ZM477.715 102H456.925V28.5H477.715V102ZM507.535 73.335H476.245V56.115H507.535V73.335ZM589.058 102L568.373 67.035L585.068 57.165L612.473 102H589.058ZM542.228 102V28.5H562.913V102H542.228ZM556.928 73.86V57.06H583.598V73.86H556.928ZM587.063 67.455L567.848 65.355L590.423 28.5H612.263L587.063 67.455ZM619.142 102V28.5H639.617V85.515H667.862V28.5H688.337V102H619.142ZM679.412 117.015V97.38L683.717 102H667.862V85.515H698.417V117.015H679.412Z" fill="#00AFAA"/>
<path d="M294.025 193.403C289.785 193.403 286.128 192.767 283.054 191.495C280.015 190.223 277.648 188.403 275.952 186.036C274.291 183.633 273.461 180.771 273.461 177.45C273.461 174.058 274.291 171.178 275.952 168.811C277.648 166.444 280.015 164.642 283.054 163.405C286.128 162.133 289.785 161.497 294.025 161.497C294.06 161.497 294.096 161.497 294.131 161.497C294.202 161.497 294.272 161.497 294.343 161.497C294.414 161.497 294.467 161.497 294.502 161.497C298.777 161.497 302.452 162.133 305.526 163.405C308.635 164.642 311.02 166.461 312.681 168.864C314.377 171.231 315.225 174.093 315.225 177.45C315.225 180.807 314.377 183.669 312.681 186.036C311.02 188.403 308.653 190.223 305.579 191.495C302.505 192.767 298.813 193.403 294.502 193.403C294.467 193.403 294.414 193.403 294.343 193.403C294.272 193.403 294.202 193.403 294.131 193.403C294.096 193.403 294.06 193.403 294.025 193.403ZM294.343 191.813C294.378 191.813 294.414 191.813 294.449 191.813C294.484 191.813 294.502 191.813 294.502 191.813C298.424 191.778 301.798 191.212 304.625 190.117C307.487 188.986 309.678 187.343 311.197 185.188C312.716 183.033 313.476 180.453 313.476 177.45C313.476 174.376 312.716 171.779 311.197 169.659C309.678 167.539 307.505 165.914 304.678 164.783C301.851 163.617 298.477 163.034 294.555 163.034C294.52 163.034 294.484 163.034 294.449 163.034C294.414 163.034 294.378 163.034 294.343 163.034C290.421 163.034 287.029 163.599 284.167 164.73C281.305 165.861 279.097 167.486 277.542 169.606C276.023 171.726 275.263 174.341 275.263 177.45C275.263 180.489 276.023 183.086 277.542 185.241C279.097 187.396 281.305 189.039 284.167 190.17C287.029 191.265 290.421 191.813 294.343 191.813ZM293.495 197.113V157.787H295.244V197.113H293.495ZM325.312 196V158.9H326.796L344.286 189.269H343.491L360.875 158.9H362.359L362.412 196H360.663L360.61 161.55H361.193L344.339 190.859H343.385L326.425 161.55H327.061V196H325.312ZM376.397 196V158.9H402.314V160.49H378.199V174.853H391.078C395.424 174.853 398.71 175.736 400.936 177.503C403.197 179.27 404.328 181.849 404.328 185.241C404.328 188.774 403.144 191.46 400.777 193.297C398.445 195.099 395 196 390.442 196H376.397ZM378.199 194.463H390.601C394.558 194.463 397.544 193.703 399.558 192.184C401.572 190.629 402.579 188.333 402.579 185.294C402.579 179.358 398.586 176.39 390.601 176.39H378.199V194.463ZM408.659 196L425.831 158.9H427.58L444.752 196H442.791L426.308 160.119H427.103L410.62 196H408.659ZM414.595 185.135L415.284 183.598H437.968L438.657 185.135H414.595ZM466.249 196V158.9H479.128C482.202 158.9 484.834 159.395 487.025 160.384C489.251 161.373 490.947 162.787 492.113 164.624C493.279 166.426 493.862 168.617 493.862 171.196C493.862 173.775 493.279 175.984 492.113 177.821C490.947 179.658 489.251 181.072 487.025 182.061C484.834 183.05 482.202 183.545 479.128 183.545H467.256L468.051 182.697V196H466.249ZM468.051 182.697L467.256 181.902H479.234C483.403 181.902 486.583 180.966 488.774 179.093C491 177.22 492.113 174.588 492.113 171.196C492.113 167.804 491 165.189 488.774 163.352C486.583 161.479 483.403 160.543 479.234 160.543H467.256L468.051 159.695V182.697ZM519.149 196.212C516.428 196.212 513.902 195.753 511.57 194.834C509.238 193.88 507.206 192.555 505.475 190.859C503.744 189.163 502.401 187.184 501.447 184.923C500.493 182.626 500.016 180.135 500.016 177.45C500.016 174.765 500.493 172.291 501.447 170.03C502.401 167.733 503.744 165.737 505.475 164.041C507.206 162.345 509.238 161.038 511.57 160.119C513.902 159.165 516.428 158.688 519.149 158.688C521.905 158.688 524.449 159.165 526.781 160.119C529.113 161.038 531.127 162.345 532.823 164.041C534.554 165.737 535.897 167.733 536.851 170.03C537.84 172.291 538.335 174.765 538.335 177.45C538.335 180.135 537.84 182.626 536.851 184.923C535.897 187.184 534.554 189.163 532.823 190.859C531.127 192.555 529.113 193.88 526.781 194.834C524.449 195.753 521.905 196.212 519.149 196.212ZM519.149 194.569C521.622 194.569 523.919 194.145 526.039 193.297C528.159 192.449 529.996 191.248 531.551 189.693C533.141 188.138 534.36 186.336 535.208 184.287C536.091 182.202 536.533 179.923 536.533 177.45C536.533 174.977 536.091 172.715 535.208 170.666C534.36 168.581 533.141 166.762 531.551 165.207C529.996 163.652 528.159 162.451 526.039 161.603C523.919 160.755 521.622 160.331 519.149 160.331C516.711 160.331 514.432 160.755 512.312 161.603C510.192 162.451 508.337 163.652 506.747 165.207C505.192 166.762 503.973 168.581 503.09 170.666C502.242 172.715 501.818 174.977 501.818 177.45C501.818 179.923 502.242 182.202 503.09 184.287C503.973 186.336 505.192 188.138 506.747 189.693C508.337 191.248 510.192 192.449 512.312 193.297C514.432 194.145 516.711 194.569 519.149 194.569ZM564.489 196.212C561.768 196.212 559.242 195.753 556.91 194.834C554.578 193.88 552.546 192.555 550.815 190.859C549.084 189.163 547.741 187.184 546.787 184.923C545.833 182.626 545.356 180.135 545.356 177.45C545.356 174.765 545.833 172.291 546.787 170.03C547.741 167.733 549.084 165.737 550.815 164.041C552.546 162.345 554.578 161.038 556.91 160.119C559.242 159.165 561.768 158.688 564.489 158.688C566.998 158.688 569.365 159.094 571.591 159.907C573.817 160.72 575.743 161.956 577.368 163.617L576.255 164.783C574.594 163.193 572.775 162.062 570.796 161.391C568.853 160.684 566.768 160.331 564.542 160.331C562.069 160.331 559.772 160.773 557.652 161.656C555.532 162.504 553.677 163.705 552.087 165.26C550.532 166.815 549.313 168.634 548.43 170.719C547.582 172.768 547.158 175.012 547.158 177.45C547.158 179.888 547.582 182.149 548.43 184.234C549.313 186.283 550.532 188.085 552.087 189.64C553.677 191.195 555.532 192.414 557.652 193.297C559.772 194.145 562.069 194.569 564.542 194.569C566.768 194.569 568.853 194.233 570.796 193.562C572.775 192.855 574.594 191.689 576.255 190.064L577.368 191.23C575.743 192.891 573.817 194.145 571.591 194.993C569.365 195.806 566.998 196.212 564.489 196.212ZM601.496 196.212C598.775 196.212 596.249 195.753 593.917 194.834C591.585 193.88 589.553 192.555 587.822 190.859C586.09 189.163 584.748 187.184 583.794 184.923C582.84 182.626 582.363 180.135 582.363 177.45C582.363 174.765 582.84 172.291 583.794 170.03C584.748 167.733 586.09 165.737 587.822 164.041C589.553 162.345 591.585 161.038 593.917 160.119C596.249 159.165 598.775 158.688 601.496 158.688C604.004 158.688 606.372 159.094 608.598 159.907C610.824 160.72 612.749 161.956 614.375 163.617L613.262 164.783C611.601 163.193 609.781 162.062 607.803 161.391C605.859 160.684 603.775 160.331 601.549 160.331C599.075 160.331 596.779 160.773 594.659 161.656C592.539 162.504 590.684 163.705 589.094 165.26C587.539 166.815 586.32 168.634 585.437 170.719C584.589 172.768 584.165 175.012 584.165 177.45C584.165 179.888 584.589 182.149 585.437 184.234C586.32 186.283 587.539 188.085 589.094 189.64C590.684 191.195 592.539 192.414 594.659 193.297C596.779 194.145 599.075 194.569 601.549 194.569C603.775 194.569 605.859 194.233 607.803 193.562C609.781 192.855 611.601 191.689 613.262 190.064L614.375 191.23C612.749 192.891 610.824 194.145 608.598 194.993C606.372 195.806 604.004 196.212 601.496 196.212ZM623.644 196V158.9H625.446V192.873L651.893 158.9H653.377V196H651.628V162.027L625.128 196H623.644ZM667.431 196V158.9H669.233V192.873L695.68 158.9H697.164V196H695.415V162.027L668.915 196H667.431Z" fill="#00AFAA"/>
</svg>
